# xmcd
#
# Track frame offsets:
#	150
#	13287
#	25856
#	37823
#	51209
#	63746
#	76199
#	87191
#	99574
#	112018
#
# Disc length: 1664 seconds
#
# Revision: 0
# Processed by: cddbd v1.5.1PL0 Copyright (c) Steve Scherf et al.
# Submitted via: dBpowerAMP V4.0
#
DISCID=79067e0a
DTITLE=Hank Williams - I'm So Lonesome I Could Cry
DYEAR=2005
DGENRE=Country
TTITLE0=Jambalaya (on the Bayou)
TTITLE1=I'm So Lonesome I Could Cry
TTITLE2=You Win Again
TTITLE3=Wedding Bells
TTITLE4=I Won't Be Home No More
TTITLE5=Howlin' At The Moon
TTITLE6=Why Don't You Love Me
TTITLE7=Never Again Will I Knock On Your Door
TTITLE8=Cold Cold Heart
TTITLE9=Lovesick Blues (live)
EXTD=
EXTT0=
EXTT1=
EXTT2=
EXTT3=
EXTT4=
EXTT5=
EXTT6=
EXTT7=
EXTT8=
EXTT9=
PLAYORDER=
